PathFileType	4	(X/Y/Z)	SUBJ59_2_walk_RCNL2025.trc
DataRate	CameraRate	NumFrames	NumMarkers	Units	OrigDataRate	OrigDataStartFrame	OrigNumFrames
100	100	12	25	mm	100	164	327
Frame#	Time	R_Shoulder			L_Shoulder			C7			J_Notch			R_Elbow			L_Elbow			R_Wrist			L_Wrist			R_Asis			L_Asis			Sacral			Thoracic			Sternum			R_Thigh_Lateral			R_Knee_Lateral			R_Shank_Lateral			R_Ankle_Lateral			R_Heel			R_Toe			L_Thigh_Lateral			L_Knee_Lateral			L_Shank_Lateral			L_Ankle_Lateral			L_Heel			L_Toe		
		X1	Y1	Z1	X2	Y2	Z2	X3	Y3	Z3	X4	Y4	Z4	X5	Y5	Z5	X6	Y6	Z6	X7	Y7	Z7	X8	Y8	Z8	X9	Y9	Z9	X10	Y10	Z10	X11	Y11	Z11	X12	Y12	Z12	X13	Y13	Z13	X14	Y14	Z14	X15	Y15	Z15	X16	Y16	Z16	X17	Y17	Z17	X18	Y18	Z18	X19	Y19	Z19	X20	Y20	Z20	X21	Y21	Z21	X22	Y22	Z22	X23	Y23	Z23	X24	Y24	Z24	X25	Y25	Z25
164	1.63000000	-383.347229	1440.299194	437.583740	-408.340454	1505.007202	42.495003	-488.646240	1556.543945	253.810028	-328.295105	1459.312988	233.170624	-405.354523	1121.931152	516.773865	-453.842987	1173.971680	-82.513908	-305.991302	861.641571	500.522934	-407.236115	910.403778	-82.416195	-337.602814	996.643433	325.657562	-339.066040	1001.885498	99.136749	-557.203613	1023.545349	210.441818	-558.101501	1344.311035	218.974121	-279.340668	1263.847046	207.778137	-413.410034	597.519775	392.523041	-429.060822	502.932648	334.999817	-447.468750	301.567047	403.575409	-504.785950	64.022560	284.385376	-546.447449	55.595963	240.917587	-344.618896	40.882786	245.162384	-325.453949	626.589233	-7.410554	-296.415405	525.065613	44.771984	-377.454926	348.514374	-5.553857	-466.975342	140.611160	83.527069	-506.991730	132.174728	144.795059	-332.634583	52.197601	107.649406
165	1.64000000	-372.627991	1441.071777	437.123749	-398.757599	1503.781372	41.702324	-478.457977	1556.330933	253.100113	-318.035492	1459.128418	232.553009	-391.965576	1123.024292	517.976013	-447.561920	1172.672485	-81.945869	-287.746964	864.747253	500.716293	-404.084045	908.682831	-83.101067	-327.635651	995.973755	326.223389	-328.451172	1001.702759	99.887741	-546.852295	1023.178650	210.594971	-547.821594	1343.874878	219.361053	-269.014343	1263.573364	208.018570	-408.894012	597.282104	392.698059	-426.880249	502.918091	335.192932	-447.026367	301.665863	403.788452	-504.753387	64.113037	284.256958	-546.399719	55.835560	240.775879	-344.519531	40.881580	245.148407	-311.431488	627.365845	-5.961071	-281.999023	525.657288	46.546135	-355.024231	345.009094	-4.361717	-433.109589	132.133011	83.768349	-472.577759	121.151978	145.263962	-294.206207	51.049034	106.187706
166	1.65000000	-361.895966	1441.584595	436.580597	-389.168823	1502.368408	40.826859	-468.229614	1555.898315	252.314453	-307.751068	1458.701416	231.868393	-378.607727	1123.920288	519.117371	-441.137848	1171.228149	-81.471443	-269.718399	867.690552	500.830765	-400.669266	906.867218	-83.746994	-317.665436	995.089966	326.739349	-317.816986	1001.214783	100.589294	-536.474548	1022.576416	210.735550	-537.537354	1343.240356	219.667068	-258.678406	1263.054810	208.208099	-404.466400	596.993774	392.906189	-424.679504	502.918945	335.431885	-446.586060	301.794128	404.001312	-504.736145	64.242233	284.108002	-546.366821	56.113377	240.590240	-344.447449	40.900665	245.180618	-297.997650	627.665405	-4.457489	-268.179260	525.737122	48.341358	-332.905029	341.371155	-3.175184	-398.835693	124.021049	83.874138	-437.609314	110.547447	145.508118	-255.719223	50.514591	104.687622
167	1.66000000	-351.152863	1441.841064	435.962433	-379.561096	1500.774658	39.878338	-457.950134	1555.249146	251.458145	-297.435303	1458.027954	231.122192	-365.270416	1124.620605	520.182983	-434.542450	1169.645142	-81.091713	-251.920357	870.447906	500.874374	-396.995819	904.935364	-84.338282	-307.686188	994.015320	327.215546	-307.160980	1000.417053	101.242905	-526.068970	1021.736206	210.849777	-527.241089	1342.412964	219.890259	-248.339310	1262.284302	208.346329	-400.087952	596.658569	393.143066	-422.381317	502.930695	335.714935	-446.074707	301.945129	404.208893	-504.729828	64.410927	283.940186	-546.348145	56.435677	240.365372	-344.408478	40.932709	245.240173	-285.206024	627.423096	-2.911396	-254.930328	525.289795	50.131802	-311.111816	337.665039	-2.026661	-364.273773	116.433983	83.815102	-402.241852	100.574196	145.499512	-217.310883	50.685841	103.289825
168	1.67000000	-340.398804	1441.846680	435.275208	-369.915253	1499.005249	38.868999	-447.612030	1554.391235	250.537079	-287.083801	1457.106934	230.321594	-351.944580	1125.127197	521.158203	-427.757874	1167.928467	-80.806686	-234.363594	872.995483	500.857193	-393.074280	902.867981	-84.858528	-297.684540	992.773499	327.665741	-296.483643	999.310669	101.851120	-515.636047	1020.660156	210.922104	-516.925659	1341.402710	220.027802	-238.000183	1261.261841	208.429703	-395.691620	596.277100	393.409271	-419.901672	502.940460	336.037201	-445.419739	302.106293	404.412048	-504.730133	64.620255	283.761902	-546.336060	56.803783	240.116150	-344.403320	40.973171	245.307114	-273.093964	626.591614	-1.343889	-242.221664	524.321472	51.901604	-289.616943	333.943024	-0.952518	-329.560425	109.520416	83.580421	-366.657288	91.419342	145.233032	-179.135254	51.644135	102.118698
169	1.68000000	-329.631287	1441.609741	434.523926	-360.207672	1497.064941	37.812462	-437.211151	1553.335693	249.557999	-276.694611	1455.941406	229.472427	-338.621704	1125.442017	522.030334	-420.775238	1166.085083	-80.615021	-217.059135	875.310181	500.787888	-388.908188	900.656586	-85.296774	-287.646332	991.385803	328.101654	-285.787292	997.905518	102.417107	-505.176544	1019.358032	210.937576	-506.586639	1340.223999	220.073380	-227.659836	1259.995239	208.452972	-391.190918	595.845276	393.707489	-417.156158	502.928345	336.388855	-444.556976	302.263977	404.613678	-504.734009	64.873772	283.586945	-546.314819	57.212574	239.863632	-344.430023	41.018715	245.368195	-261.679565	625.147949	0.213129	-230.015976	522.862488	53.645939	-268.357239	330.261749	0.012338	-294.848236	103.411087	83.182968	-331.050262	83.224739	144.724838	-141.366882	53.456841	101.272400
170	1.69000000	-318.844452	1441.140869	433.712402	-350.412872	1494.959717	36.722145	-426.745209	1552.096802	248.528412	-266.269135	1454.539185	228.578552	-325.293640	1125.568481	522.789856	-413.591827	1164.126221	-80.513718	-200.020790	877.370392	500.669754	-384.484833	898.307098	-85.652060	-277.566345	989.871338	328.526489	-275.072571	996.222290	102.942833	-494.689423	1017.847290	210.881393	-496.223145	1338.893677	220.018036	-217.313965	1258.500000	208.411987	-386.493591	595.355896	394.038727	-414.067780	502.871033	336.755066	-443.436310	302.406677	404.816742	-504.739838	65.178444	283.431580	-546.265076	57.655746	239.628616	-344.480377	41.064659	245.418167	-250.969559	623.092468	1.723571	-218.264847	520.966187	55.370094	-247.252579	326.698059	0.844864	-260.310059	98.215256	82.657547	-295.629242	76.085281	144.012741	-104.202446	56.169704	100.817566
171	1.70000000	-308.028717	1440.453857	432.842377	-340.506073	1492.698242	35.609173	-416.213043	1550.692017	247.454651	-255.811874	1452.912842	227.642822	-311.954742	1125.512573	523.429749	-406.205688	1162.067261	-80.498337	-183.264694	879.157654	500.501053	-379.775452	895.837708	-85.933262	-267.447968	988.251465	328.935272	-264.334259	994.292297	103.427574	-484.170837	1016.152100	210.738220	-485.835388	1337.430054	219.854263	-206.956558	1256.798340	208.304672	-381.515106	594.800720	394.399445	-410.574463	502.746796	337.118561	-442.021332	302.526703	405.023010	-504.744446	65.543404	283.308807	-546.171692	58.135288	239.425079	-344.536407	41.103062	245.460281	-240.970291	620.444092	3.160094	-206.905090	518.707092	57.086922	-226.233612	323.353485	1.542575	-226.146194	94.014091	82.053185	-260.624695	70.054947	143.147842	-67.862679	59.789299	100.785759
172	1.71000000	-297.170868	1439.565918	431.913666	-330.467194	1490.292969	34.480087	-405.614197	1549.141602	246.340210	-245.327362	1451.080322	226.667236	-298.604889	1125.286255	523.942993	-398.609039	1159.924194	-80.563850	-166.808113	880.660034	500.280426	-374.743805	893.272766	-86.155224	-257.295044	986.551697	329.320557	-253.561142	992.154846	103.867584	-473.615631	1014.302673	210.493973	-475.422180	1335.853149	219.578217	-196.580795	1254.917358	208.130402	-376.188782	594.172668	394.780060	-406.634430	502.540649	337.462677	-440.287567	302.620972	405.232025	-504.739716	65.976936	283.223236	-546.029175	58.666283	239.257782	-344.573517	41.123905	245.503418	-231.684952	617.237305	4.515790	-195.858093	516.177124	58.812202	-205.273682	320.344910	2.126150	-192.591110	90.849510	81.423088	-226.293350	65.148033	142.185791	-32.591408	64.264595	101.174217
173	1.72000000	-286.256317	1438.499023	430.924103	-320.283813	1487.761108	33.335644	-394.948547	1547.468628	245.185715	-234.814774	1449.067749	225.652176	-285.251984	1124.906738	524.320984	-390.783356	1157.708862	-80.705193	-150.668808	881.874146	500.011398	-369.355225	890.638245	-86.334118	-247.107742	984.800110	329.676056	-242.739883	989.855042	104.257133	-463.018677	1012.335449	210.138870	-464.980011	1334.184448	219.189346	-186.178986	1252.887695	207.889420	-370.472595	593.468079	395.165100	-402.229828	502.247131	337.772583	-438.223602	302.692017	405.438690	-504.710999	66.483124	283.171692	-545.843018	59.274139	239.124893	-344.569244	41.119011	245.556366	-223.090652	613.527893	5.806715	-185.032455	513.480896	60.557384	-184.414871	317.788269	2.635915	-159.913284	88.712067	80.817856	-192.916260	61.334354	141.184814	1.351198	69.478577	101.952026
174	1.73000000	-275.272583	1437.280640	429.870056	-309.952271	1485.125854	32.171013	-384.215759	1545.698730	243.988998	-224.263199	1446.912476	224.595444	-271.912354	1124.395508	524.555359	-382.699402	1155.424927	-80.916557	-134.864830	882.803406	499.701035	-363.581375	887.960236	-86.484814	-236.883240	983.023376	329.997559	-231.859985	987.440674	104.591713	-452.375214	1010.291260	209.669571	-454.503876	1332.447144	218.689423	-175.742554	1250.743530	207.582977	-364.353729	592.688721	395.534485	-397.366516	501.869202	338.035370	-435.834503	302.748230	405.631989	-504.637665	67.060875	283.146790	-545.624390	59.988125	239.020660	-344.509460	41.084438	245.623978	-215.107178	609.405762	7.063421	-174.327347	510.728241	62.320637	-163.773483	315.775696	3.122210	-128.406509	87.532646	80.285919	-160.793396	58.534477	140.210312	33.699848	75.246857	103.070160
175	1.74000000	-264.211273	1435.942871	428.746552	-299.476044	1482.416748	30.976978	-373.415009	1543.859375	242.744583	-213.652420	1444.663086	223.492096	-258.609009	1123.776001	524.639587	-374.325287	1153.064941	-81.189209	-119.414818	883.455872	499.357559	-357.401688	885.264038	-86.620296	-226.616684	981.243408	330.283539	-220.918137	984.958130	104.871910	-441.680908	1008.213135	209.089783	-443.987152	1330.665039	218.081772	-165.262695	1248.521606	207.214355	-357.848816	591.843628	395.867065	-392.070557	501.416870	338.240692	-433.143768	302.803619	405.796417	-504.497681	67.709846	283.138947	-545.382812	60.835026	238.936768	-344.389069	41.020569	245.707169	-207.573593	605.006348	8.315701	-163.634232	508.024506	64.079865	-143.519073	314.341736	3.632061	-98.378815	87.179626	79.880157	-130.235107	56.619404	139.342392	64.195946	81.319252	104.473534
